<svg width="20" height="18" viewBox="0 0 20 18" fill="none" xmlns="http://www.w3.org/2000/svg">
<path d="M13 10C13 11.6569 11.6569 13 10 13C8.34315 13 7 11.6569 7 10C7 8.34315 8.34315 7 10 7C11.6569 7 13 8.34315 13 10Z" stroke="#242424" stroke-width="1.5" stroke-linecap="round" stroke-linejoin="round"/>
<path d="M5.8523 2.34341L5.86169 2.31319C6.10539 1.52919 6.79233 1 7.56632 1L12.4337 1C13.2076 1 13.8946 1.52919 14.1383 2.31319L14.1477 2.34341C14.2695 2.7354 14.613 3 15 3L16 3C17.6569 3 19 4.34315 19 6V14C19 15.6569 17.6569 17 16 17H4C2.34315 17 1 15.6569 1 14L1 6C1 4.34315 2.34315 3 4 3L4.99999 3C5.38699 3 5.73045 2.7354 5.8523 2.34341Z" stroke="#242424" stroke-width="1.5" stroke-linecap="round" stroke-linejoin="round"/>
</svg>
