<svg width="24" height="24" viewBox="0 0 24 24" fill="none" xmlns="http://www.w3.org/2000/svg">
<path d="M15 13C15 14.6569 13.6569 16 12 16C10.3431 16 9 14.6569 9 13C9 11.3431 10.3431 10 12 10C13.6569 10 15 11.3431 15 13Z" stroke="#111111" stroke-width="1.5" stroke-linecap="round" stroke-linejoin="round"/>
<path d="M7.8523 5.34341L7.86169 5.31319C8.10539 4.52919 8.79233 4 9.56632 4L14.4337 4C15.2076 4 15.8946 4.52919 16.1383 5.31319L16.1477 5.34341C16.2695 5.7354 16.613 6 17 6L18 6C19.6569 6 21 7.34315 21 9V17C21 18.6569 19.6569 20 18 20H6C4.34315 20 3 18.6569 3 17L3 9C3 7.34315 4.34315 6 6 6L6.99999 6C7.38699 6 7.73045 5.7354 7.8523 5.34341Z" stroke="#111111" stroke-width="1.5" stroke-linecap="round" stroke-linejoin="round"/>
</svg>
