<svg width="24" height="24" viewBox="0 0 24 24" fill="none" xmlns="http://www.w3.org/2000/svg">
<path d="M3.4453 8.70313L11.4453 3.3698C11.7812 3.14587 12.2188 3.14587 12.5547 3.3698L20.5547 8.70313C20.8329 8.8886 21 9.20083 21 9.53518V20C21 20.5523 20.5523 21 20 21H15.7778C15.3482 21 15 20.6518 15 20.2222V17C15 15.3431 13.6569 14 12 14C10.3431 14 9 15.3431 9 17V20.2222C9 20.6518 8.65178 21 8.22222 21H4C3.44772 21 3 20.5523 3 20V9.53518C3 9.20083 3.1671 8.8886 3.4453 8.70313Z" stroke="black" stroke-width="1.5"/>
</svg>
